<svg width="2941.25" height="2933.16" version="1.1" viewBox="0 0 778.205 776.067" xmlns="http://www.w3.org/2000/svg">
 <defs>
  <clipPath id="j">
   <path d="m862.695 262.383h136.871c114.374 0 177.374 115.308 200.934 225.926 42.32 198.765-48.97 214.691-108.97 214.691h-134.999zm-19.222 556.863h297.187c226.87 0 232.63-193.109 205.46-320.613-30.74-144.375-132.25-352.492-354.436-352.492h-291.563z"/>
  </clipPath>
  <linearGradient id="e" x2="1" gradientTransform="matrix(-3.72e-5,-852.131,-852.131,3.72e-5,1028.76,1196.62)" gradientUnits="userSpaceOnUse">
   <stop style="stop-color:#fff" offset="0"/>
   <stop style="stop-color:#fbbf15" offset="1"/>
  </linearGradient>
  <clipPath id="i">
   <path d="m1947.86 146.141h-131.26l119.8 562.492h-1.86l-245.44-562.492h-137.82l-2.99 562.492h-1.9l-119.78-562.492h-131.26l143.37 673.105h205.31l8.86-530.613h1.87l233.01 530.613h203.45z"/>
  </clipPath>
  <linearGradient id="d" x2="1" gradientTransform="matrix(-3.72e-5,-852.131,-852.131,3.72e-5,1693.29,1196.62)" gradientUnits="userSpaceOnUse">
   <stop style="stop-color:#fff" offset="0"/>
   <stop style="stop-color:#fbbf15" offset="1"/>
  </linearGradient>
  <clipPath id="h">
   <path d="m2527.07 819.246h146.25l-372.1-673.105h-134.06l-83.52 673.105h150.94l35.77-509.988h1.87z"/>
  </clipPath>
  <linearGradient id="c" x2="1" gradientTransform="matrix(-3.72e-5,-852.131,-852.131,3.72e-5,2378.47,1196.62)" gradientUnits="userSpaceOnUse">
   <stop style="stop-color:#fff" offset="0"/>
   <stop style="stop-color:#fbbf15" offset="1"/>
  </linearGradient>
  <clipPath id="g">
   <path d="m537.688 868.965c-253.895-292.942 136.707-722.602 136.707-722.602h-607.5s-191.578 448.547 73.6875 742.129c232.5 257.348 993.988 416.638 2140.5-42.855 0 0-1388.97 432.293-1743.39 23.328z"/>
  </clipPath>
  <linearGradient id="b" x2="1" gradientTransform="matrix(-3.72e-5,-852.164,-852.164,3.72e-5,1140.54,1196.64)" gradientUnits="userSpaceOnUse">
   <stop style="stop-color:#fff" offset="0"/>
   <stop style="stop-color:#fbbf15" offset="1"/>
  </linearGradient>
  <clipPath id="f">
   <path d="m364.473 873.137c-249.469-285.934 18.121-726.703 18.121-726.703l78.539-0.098s-294.125 444.281-44.656 730.223c115.558 132.461 389.113 244.111 787.643 212.721-467.788 36.85-721.608-80.85-839.647-216.143z"/>
  </clipPath>
  <linearGradient id="a" x2="1" gradientTransform="matrix(80.7552,-804.684,-882.992,-18.9863,698.008,1145.33)" gradientUnits="userSpaceOnUse">
   <stop style="stop-color:#fff" offset="0"/>
   <stop style="stop-color:#fbbf15" offset="1"/>
  </linearGradient>
 </defs>
 <g transform="translate(284.102 239.533)">
  <g transform="translate(120.119 -5.625)">
   <ellipse cx="-15.1191" cy="154.125" rx="371.499" ry="372.613" style="fill:#fff;stroke-width:20.2414;stroke:#fff"/>
  </g>
  <ellipse cx="105" cy="148.5" rx="376.237" ry="375.168" style="fill:none;stroke-width:20.4397;stroke:#ffc922"/>
  <ellipse cx="105" cy="148.5" rx="356.364" ry="357.433" style="fill:none;stroke-width:19.4168;stroke:#09347a"/>
  <g transform="translate(228.22 10.25)">
   <g style="display:none">
    <path d="m-423.702 273.3h4.66406c3.89713 0 6.04516-3.92862 6.84788-7.69635 1.44313-6.77692-1.66747-7.31615-3.71227-7.31615h-4.59909zm-0.65144-18.9746h10.1272c7.72979 0 7.92618 6.58058 6.99817 10.9249-1.04765 4.92083-4.50813 12.0138-12.0781 12.0138h-9.93641l4.88914-22.9387" style="fill:#1a3374"/>
    <path d="m-394.184 267.072c0.32952-2.74871-1.25066-3.58193-2.6884-3.58193-2.10707 0-3.51294 1.34562-4.24651 3.58193zm3.29743 5.20527c-2.05338 4.08762-5.7252 5.43324-8.63304 5.43324-4.79253 0-7.97595-2.30239-6.48378-9.2996 0.43568-2.04476 2.53418-8.59376 9.97858-8.59376 3.35406 0 7.64766 1.60326 5.99073 9.36568l-0.17138 0.79973h-11.6605c-0.14465 1.26996-0.5009 4.14602 3.11085 4.14602 1.246 0 2.65848-0.63784 3.26874-1.85131h4.59982" style="fill:#1a3374"/>
    <path d="m-384.197 277.264h-4.47454l4.88914-22.9387h4.47552l-4.89012 22.9387" style="fill:#1a3374"/>
    <path d="m-368.767 268.99c-0.52395 0.35054-1.31882 0.63497-3.2322 0.92708-1.72215 0.28924-3.18465 0.70107-3.58012 2.55237-0.3332 1.56685 0.77869 2.04475 1.6405 2.04475 1.98081 0 4.26588-1.27474 4.70745-3.35205zm3.32048 4.94766c-0.43005 2.01315-0.0775 2.46137 0.42612 2.65292l-0.14441 0.67425h-4.82416c-0.0843-0.80163-0.0929-1.05639 0.0132-2.01509-1.24601 1.05639-2.98335 2.46139-6.01648 2.46139-2.55698 0-4.86903-1.43947-4.12196-4.95244 0.70881-3.32239 3.17974-5.01374 6.10939-5.42843l4.15556-0.60817c0.72304-0.0977 1.64638-0.38692 1.85233-1.34084 0.40038-1.89056-1.36859-1.98155-2.51701-1.98155-2.23727 0-2.9125 1.3734-3.25232 2.36177h-4.31369c1.62039-5.20529 5.38807-5.9437 8.86963-5.9437 2.3981 0 6.6179 0.73841 5.7252 4.92084l-1.96144 9.19905" style="fill:#1a3374"/>
    <path d="m-345.052 277.264h-4.5981l-0.01-12.394h-0.0652l-5.29344 12.394h-4.59982l-1.16951-16.996h4.75992l0.0508 12.2006h0.0623l4.99849-12.2006h4.5042l-0.0441 12.2006h0.0623l5.25421-12.2006h4.59982l-8.51216 16.996" style="fill:#1a3374"/>
    <path d="m-326.661 268.99c-0.52272 0.35054-1.31686 0.63497-3.23123 0.92708-1.7241 0.28924-3.18538 0.70107-3.5811 2.55237-0.3332 1.56685 0.77869 2.04475 1.63977 2.04475 1.98056 0 4.2676-1.27474 4.70819-3.35205zm3.32145 4.94766c-0.42906 2.01315-0.0775 2.46137 0.42539 2.65292l-0.14466 0.67425h-4.8222c-0.0853-0.80163-0.0959-1.05639 0.0125-2.01509-1.24503 1.05639-2.98237 2.46139-6.01942 2.46139-2.55232 0-4.86829-1.43947-4.12123-4.95244 0.7098-3.32239 3.17974-5.01374 6.11038-5.42843l4.15654-0.60817c0.72303-0.0977 1.64638-0.38692 1.85233-1.34084 0.40136-1.89056-1.36859-1.98155-2.518-1.98155-2.23628 0-2.91323 1.3734-3.25231 2.36177h-4.31272c1.61942-5.20529 5.38832-5.9437 8.87062-5.9437 2.3932 0 6.61495 0.73841 5.72323 4.92084l-1.96046 9.19905" style="fill:#1a3374"/>
    <path d="m-316.478 260.269h4.28109l-0.62546 2.94024h0.0642c1.29381-1.72871 2.66903-3.39135 5.38709-3.39135 0.28637 0 0.56809 0.0345 0.84661 0.0661l-0.96625 4.5387c-0.36974-0.0642-0.84857-0.0642-1.26415-0.0642-3.48156 0-4.58389 2.17021-4.98598 4.05312l-1.88691 8.8533h-4.47159l3.62131-16.996" style="fill:#1a3374"/>
    <path d="m-295.287 267.072c0.33246-2.74871-1.2487-3.58193-2.68644-3.58193-2.10781 0-3.51196 1.34562-4.24553 3.58193zm3.29939 5.20527c-2.05437 4.08762-5.72422 5.43324-8.63377 5.43324-4.79082 0-7.97424-2.30239-6.48403-9.2996 0.43666-2.04476 2.53614-8.59376 9.97858-8.59376 3.35308 0 7.64569 1.60326 5.99269 9.36568l-0.17236 0.79973h-11.6595c-0.14563 1.26996-0.50188 4.14602 3.10889 4.14602 1.24502 0 2.65946-0.63784 3.26874-1.85131h4.6008" style="fill:#1a3374"/>
    <path d="m-275.133 273.3h4.66308c3.89811 0 6.04516-3.92862 6.84984-7.69635 1.44215-6.77692-1.66845-7.31615-3.71325-7.31615h-4.59909zm-0.65145-18.9746h10.1272c7.72979 0 7.92519 6.58058 7.00013 10.9249-1.0506 4.92083-4.51009 12.0138-12.081 12.0138h-9.93543l4.88913-22.9387" style="fill:#1a3374"/>
    <path d="m-249.327 258.255h-4.47355l0.88706-4.1556h4.47257zm-0.42906 2.01318-3.62205 16.996h-4.47355l3.62204-16.996h4.47356" style="fill:#1a3374"/>
    <path d="m-239.968 277.264h-4.69765l-2.47754-16.996h4.98402l0.84464 12.5214h0.0623l6.28078-12.5214h4.75992l-9.75645 16.996" style="fill:#1a3374"/>
    <path d="m-222.703 258.255h-4.47257l0.88583-4.1556h4.47282zm-0.42809 2.01318-3.62302 16.996h-4.47355l3.62204-16.996h4.47453" style="fill:#1a3374"/>
    <path d="m-210.345 265.442c0.0392-1.08413-0.10053-2.23342-2.52707-2.23342-2.42777 0-2.9451 0.92421-3.10202 1.66166-0.57078 2.68453 10.4812 0.73363 9.14742 6.9905-1.05427 4.95533-6.0378 5.84985-8.68771 5.84985-3.86747 0-7.76632-1.34562-6.92633-5.87667h4.59982c-0.30549 1.43661 0.36311 2.48821 3.1741 2.48821 2.29905 0 3.08118-1.11768 3.21848-1.75554 0.60559-2.8435-10.392-0.70585-9.03783-7.05849 0.53155-2.49394 2.77838-5.69087 8.08163-5.69087 3.32219 0 7.10776 0.83133 6.43597 5.62477h-4.37646" style="fill:#1a3374"/>
    <path d="m-196.081 258.255h-4.47208l0.8851-4.1556h4.47208zm-0.42661 2.01318-3.62376 16.996h-4.47454l3.62376-16.996h4.47454" style="fill:#1a3374"/>
    <path d="m-185.241 263.588c-3.45213 0-4.73197 3.00154-5.19291 5.18134-0.46339 2.16928-0.46339 5.16795 2.98384 5.16795 3.44968 0 4.72952-2.99867 5.19291-5.16795 0.46094-2.1798 0.46339-5.18134-2.98384-5.18134zm-3.01081 14.1228c-4.57016 0-8.09094-2.80712-6.78168-8.94142 1.30681-6.13428 6.02653-8.95194 10.5942-8.95194s8.09094 2.81766 6.78168 8.95194c-1.30681 6.1343-6.02653 8.94142-10.5942 8.94142" style="fill:#1a3374"/>
    <path d="m-160.988 277.264h-4.46963l2.19926-10.3225c0.2648-1.24218 0.64973-3.35399-2.19191-3.35399-1.98105 0-3.80029 1.3418-4.35194 3.93342l-2.07668 9.74304h-4.47208l3.62131-16.996h4.28084l-0.52959 2.49105h0.0613c0.8238-1.01997 2.51064-2.94216 5.73966-2.94216 3.31974 0 5.49203 1.94898 4.69765 5.69087l-2.50819 11.7562" style="fill:#1a3374"/>
    <path d="m-137.357 263.588c-3.45214 0-4.73198 3.00154-5.19537 5.18134-0.46339 2.16928-0.46339 5.16795 2.98875 5.16795 3.44723 0 4.72707-2.99867 5.19046-5.16795 0.46584-2.1798 0.46584-5.18134-2.98384-5.18134zm-3.01081 14.1228c-4.56771 0-8.09094-2.80712-6.78413-8.94142 1.30926-6.13428 6.02897-8.95194 10.5967-8.95194 4.57015 0 8.08849 2.81766 6.78658 8.95194-1.31171 6.1343-6.02898 8.94142-10.5991 8.94142" style="fill:#1a3374"/>
    <path d="m-123.294 277.264h-4.47208l2.93971-13.799h-2.45916l0.68406-3.1969h2.45915l0.29177-1.37532c0.7527-3.51105 2.94951-4.85476 6.02161-4.85476 1.30681 0 1.9075 0.0316 2.28508 0.0613l-0.76741 3.61449h-1.24797c-1.52992 0-1.66967 0.47504-1.96634 1.88004l-0.14466 0.67425h2.90784l-0.68406 3.1969h-2.90293l-2.94461 13.799" style="fill:#1a3374"/>
    <path d="m-86.5954 277.264h-4.46963l4.0798-19.1681h-0.05884l-8.3729 19.1681h-4.6952l-0.10297-19.1681h-0.0588l-4.0896 19.1681h-4.47209l4.88644-22.9387h6.99989l0.301572 18.082h0.06375l7.94628-18.082h6.93124l-4.88889 22.9387" style="fill:#1a3374"/>
    <path d="m-71.7546 263.588c-3.45213 0-4.73197 3.00154-5.19046 5.18134-0.465842 2.16928-0.465842 5.16795 2.98384 5.16795s4.72952-2.99867 5.19291-5.16795c0.460938-2.1798 0.465842-5.18134-2.98629-5.18134zm-3.00836 14.1228c-4.57016 0-8.09339-2.80712-6.77923-8.94142 1.30191-6.13428 6.02652-8.95194 10.5918-8.95194 4.5628 0 8.09339 2.81766 6.78168 8.95194-1.30436 6.1343-6.02652 8.94142-10.5942 8.94142" style="fill:#1a3374"/>
    <path d="m-54.2243 260.269h2.77789l-0.679148 3.1969h-2.78279l-1.96389 9.22681c-0.210855 0.99798-0.259891 1.37722 1.55689 1.37722 0.289312 0 0.615401-0.0335 0.941491-0.0661l-0.720829 3.38368c-0.708571 0.0345-1.41714 0.0689-2.12081 0.0689h-0.576173c-3.86894 0-4.25387-1.47108-3.78803-3.67579l2.20172-10.3148h-2.29979l0.681601-3.1969h2.29979l0.975817-4.59904h4.47454l-0.978268 4.59904" style="fill:#1a3374"/>
    <path d="m-41.6196 263.588c-3.44723 0-4.72707 3.00154-5.19046 5.18134-0.468294 2.16928-0.468294 5.16795 2.98139 5.16795 3.45459 0 4.73197-2.99867 5.19536-5.16795 0.46339-2.1798 0.46339-5.18134-2.98629-5.18134zm-3.01081 14.1228c-4.5677 0-8.08849-2.80712-6.78413-8.94142 1.31171-6.13428 6.02898-8.95194 10.5967-8.95194 4.57016 0 8.09094 2.81766 6.78904 8.95194-1.31416 6.1343-6.02898 8.94142-10.6016 8.94142" style="fill:#1a3374"/>
    <path d="m-29.135 260.269h4.27594l-0.62766 2.94024h0.0662c1.29455-1.72871 2.67246-3.39135 5.38906-3.39135 0.289313 0 0.566366 0.0345 0.845872 0.0661l-0.96601 4.5387c-0.370222-0.0642-0.845871-0.0642-1.26022-0.0642-3.48646 0-4.58732 2.17021-4.98941 4.05312l-1.89034 8.8533h-4.46963l3.62621-16.996" style="fill:#1a3374"/>
    <path d="m4.53804 254.326h4.98451l-12.6832 22.9387h-4.5677l-2.84409-22.9387h5.15123l1.21364 17.3781h0.06375l8.68182-17.3781" style="fill:#1a3374"/>
    <path d="m18.0695 267.072c0.328542-2.74871-1.25042-3.58193-2.68962-3.58193-2.1061 0-3.51098 1.34562-4.24407 3.58193zm3.29767 5.20527c-2.05461 4.08762-5.72741 5.43324-8.63524 5.43324-4.78836 0-7.97325-2.30239-6.48256-9.2996 0.43642-2.04476 2.53026-8.59376 9.97883-8.59376 3.35406 0 7.64716 1.60326 5.98975 9.36568l-0.169174 0.79973h-11.6608c-0.149559 1.26996-0.500167 4.14602 3.10888 4.14602 1.24552 0 2.6553-0.63784 3.2658-1.85131h4.60448" style="fill:#1a3374"/>
    <path d="m38.8191 277.264h-4.47208l2.20172-10.3225c0.264794-1.24218 0.647275-3.35399-2.19436-3.35399-1.98105 0-3.79784 1.3418-4.35194 3.93342l-2.07668 9.74304h-4.47208l4.89134-22.9387h4.47208l-1.73833 8.14169h0.06375c0.875293-1.40402 3.05985-2.65005 5.48468-2.65005 3.31974 0 5.49694 1.94898 4.69765 5.69087l-2.50574 11.7562" style="fill:#1a3374"/>
    <path d="m51.6126 258.255h-4.47208l0.8851-4.1556h4.47208zm-0.433969 2.01318-3.61886 16.996h-4.47454l3.62131-16.996h4.47208" style="fill:#1a3374"/>
    <path d="m67.7847 271.064c-0.534492 1.75745-2.94706 6.64668-9.17464 6.64668-6.3943 0-6.81846-4.88923-6.0584-8.46638 1.17196-5.49643 4.40588-9.42698 10.1554-9.42698 2.68227 0 6.83562 1.21344 6.11724 6.5174h-4.53828c0.04413-1.08416-0.242728-2.7468-2.15758-2.7468h-0.225566c-2.81221 0-4.14354 2.81288-4.59467 4.92084-0.392288 1.85417-1.11557 5.52709 2.27037 5.52709 2.27282 0 3.50362-2.17502 3.6728-2.97185h4.53338" style="fill:#1a3374"/>
    <path d="m73.5489 277.264h-4.47699l4.89134-22.9387h4.47454l-4.88889 22.9387" style="fill:#1a3374"/>
    <path d="m90.1819 267.072c0.33099-2.74871-1.24797-3.58193-2.68718-3.58193-2.10609 0-3.51097 1.34562-4.24406 3.58193zm3.30012 5.20527c-2.05461 4.08762-5.72986 5.43324-8.63524 5.43324-4.78837 0-7.97571-2.30239-6.48502-9.2996 0.438872-2.04476 2.54006-8.59376 9.97882-8.59376 3.35652 0 7.64962 1.60326 5.99466 9.36568l-0.16918 0.79973h-11.6632c-0.14466 1.26996-0.49772 4.14602 3.10888 4.14602 1.24551 0 2.6602-0.63784 3.2707-1.85131h4.59958" style="fill:#1a3374"/>
    <path d="m107.702 265.442c0.0441-1.08413-0.0981-2.23342-2.52535-2.23342-2.42483 0-2.94216 0.92421-3.10398 1.66166-0.56882 2.68453 10.4864 0.73363 9.15012 6.9905-1.05428 4.95533-6.03634 5.84985-8.68673 5.84985-3.86404 0-7.76976-1.34562-6.92634-5.87667h4.60203c-0.308932 1.43661 0.35796 2.48821 3.17263 2.48821 2.29734 0 3.08191-1.11768 3.21921-1.75554 0.60069-2.8435-10.3932-0.70585-9.04224-7.05849 0.53205-2.49394 2.77789-5.69087 8.08114-5.69087 3.32219 0 7.11022 0.83133 6.43843 5.62477h-4.37892" style="fill:#1a3374"/>
   </g>
   <g>
    <g>
     <g transform="matrix(.24518 0 0 -.24518 -457.879 277.711)">
      <g clip-path="url(#j)">
       <path d="m862.695 262.383h136.871c114.374 0 177.374 115.308 200.934 225.926 42.32 198.765-48.97 214.691-108.97 214.691h-134.999zm-19.222 556.863h297.187c226.87 0 232.63-193.109 205.46-320.613-30.74-144.375-132.25-352.492-354.436-352.492h-291.563l143.352 673.105" style="fill:url(#e)"/>
      </g>
     </g>
     <g transform="matrix(.24518 0 0 -.24518 -457.879 277.711)">
      <g clip-path="url(#i)">
       <path d="m1947.86 146.141h-131.26l119.8 562.492h-1.86l-245.44-562.492h-137.82l-2.99 562.492h-1.9l-119.78-562.492h-131.26l143.37 673.105h205.31l8.86-530.613h1.87l233.01 530.613h203.45l-143.36-673.105" style="fill:url(#d)"/>
      </g>
     </g>
     <g transform="matrix(.24518 0 0 -.24518 -457.879 277.711)">
      <g clip-path="url(#h)">
       <path d="m2527.07 819.246h146.25l-372.1-673.105h-134.06l-83.52 673.105h150.94l35.77-509.988h1.87l254.85 509.988" style="fill:url(#c)"/>
      </g>
     </g>
    </g>
    <g>
     <path d="m-232.494 213.38h33.5598c28.0437 0 43.4876-28.2712 49.264-55.3925 10.3785-48.7332-12.004-52.6379-26.7148-52.6379h-33.0993zm-4.70918-136.532h72.8638c55.6264 0 57.0338 47.3465 50.3747 78.6079-7.53928 35.3979-32.4275 86.424-86.9016 86.424h-71.4859l35.149-165.032" style="fill:#1a3374"/>
     <path d="m33.5698 241.88h-32.1823l29.3726-137.912h-0.460938l-60.1721 137.912h-33.7907l-0.737992-137.912h-0.46339l-29.3701 137.912h-32.175l35.1441-165.032h50.3379l2.17475 130.096h0.460938l57.1269-130.096h49.8794l-35.1441 165.032" style="fill:#1a3374"/>
     <path d="m175.581 76.848h35.8576l-91.2315 165.032h-32.8713l-20.475-165.032h37.0075l8.76274 125.039h0.46584l62.4841-125.039" style="fill:#1a3374"/>
    </g>
   </g>
   <g>
    <g>
     <g transform="matrix(.24518 0 0 -.24518 -457.879 277.711)">
      <g clip-path="url(#g)">
       <path d="m537.688 868.965c-253.895-292.942 136.707-722.602 136.707-722.602h-607.5s-191.578 448.547 73.6875 742.129c232.5 257.348 993.988 416.638 2140.5-42.855 0 0-1388.97 432.293-1743.39 23.328" style="fill:url(#b)"/>
      </g>
     </g>
    </g>
    <g>
     <path d="m-312.179 64.6579c-62.247 71.8235 33.5168 177.168 33.5168 177.168h-143.648s-52.2693-109.975 12.7685-181.955c57.0073-63.0966 229.836-102.151 510.938 10.5072 0 0-326.675-105.99-413.575-5.71956" style="fill:#1a3374"/>
    </g>
    <g>
     <g transform="matrix(.24518 0 0 -.24518 -457.879 277.711)">
      <g clip-path="url(#f)">
       <path d="m364.473 873.137c-249.469-285.934 18.121-726.703 18.121-726.703l78.539-0.098s-294.125 444.281-44.656 730.223c115.558 132.461 389.113 244.111 787.643 212.721-467.788 36.85-721.608-80.85-839.647-216.143" style="fill:url(#a)"/>
      </g>
     </g>
    </g>
    <g>
     <path d="m-348.245 208.936h-44.4857v-13.8985h44.4857v13.8985" style="fill:#1a3374"/>
     <path d="m-364.649 144.633-44.4293-2.289 0.71543-13.8843 44.4283 2.2841-0.71446 13.8892" style="fill:#1a3374"/>
     <path d="m-352.637 96.2891-43.6965-8.34666 1.82438-9.563 43.6967 8.34666-1.82463 9.563" style="fill:#1a3374"/>
     <path d="m-339.258 58.7756-30.367-5.80096 1.53998-8.0804 30.368 5.79998-1.54096 8.08138" style="fill:#1a3374"/>
     <path d="m-303.425 37.9679-30.3687-5.80243 1.25458-6.57328 30.3697 5.80096-1.25557 6.57475" style="fill:#1a3374"/>
     <path d="m-273.049 23.9299-30.3668-5.80341 0.67989-3.56982 30.368 5.80096-0.68111 3.57227" style="fill:#1a3374"/>
     <path d="m-225.097 21.2672-55.0182-10.5084 0.34006-1.80452 55.0228 10.5084-0.34472 1.80452" style="fill:#1a3374"/>
     <path d="m-201.492 17.1188-55.0196-10.506 0.25082-1.34359 55.0262 10.5109-0.25744 1.33868" style="fill:#1a3374"/>
    </g>
   </g>
  </g>
 </g>
</svg>
